
  <svg width="441.75" height="48" viewBox="0 0 2356 256" fill="none" xmlns="http://www.w3.org/2000/svg" xmlns:xlink="http://www.w3.org/1999/xlink" version="1.1">
    
        <g transform="translate(0, 0)">
          <svg xmlns="http://www.w3.org/2000/svg" width="256" height="256" fill="none" viewBox="0 0 256 256"><rect width="256" height="256" fill="#242938" rx="60"/><path fill="#00D8FF" d="M128.001 146.951C138.305 146.951 146.657 138.598 146.657 128.295C146.657 117.992 138.305 109.639 128.001 109.639C117.698 109.639 109.345 117.992 109.345 128.295C109.345 138.598 117.698 146.951 128.001 146.951Z"/><path fill-rule="evenodd" stroke="#00D8FF" stroke-width="8.911" d="M128.002 90.3633C153.05 90.3633 176.319 93.9575 193.864 99.9976C215.003 107.275 228 118.306 228 128.295C228 138.704 214.226 150.423 191.525 157.944C174.363 163.63 151.779 166.598 128.002 166.598C103.624 166.598 80.5389 163.812 63.1834 157.881C41.2255 150.376 28 138.506 28 128.295C28 118.387 40.4096 107.441 61.2515 100.175C78.8617 94.0353 102.705 90.3633 127.998 90.3633H128.002Z" clip-rule="evenodd"/><path fill-rule="evenodd" stroke="#00D8FF" stroke-width="8.911" d="M94.9811 109.438C107.495 87.7402 122.232 69.3783 136.23 57.1971C153.094 42.5206 169.144 36.7728 177.796 41.7623C186.813 46.9623 190.084 64.7496 185.259 88.1712C181.614 105.879 172.9 126.925 161.021 147.523C148.842 168.641 134.897 187.247 121.09 199.315C103.619 214.587 86.7284 220.114 77.8833 215.013C69.3003 210.067 66.0181 193.846 70.1356 172.161C73.6145 153.838 82.3451 131.349 94.977 109.438L94.9811 109.438Z" clip-rule="evenodd"/><path fill-rule="evenodd" stroke="#00D8FF" stroke-width="8.911" d="M95.0123 147.578C82.4633 125.904 73.9194 103.962 70.3531 85.7517C66.0602 63.8109 69.0954 47.0355 77.7401 42.0315C86.7485 36.8163 103.792 42.866 121.674 58.7437C135.194 70.7479 149.077 88.8052 160.99 109.383C173.204 130.481 182.358 151.856 185.919 169.844C190.425 192.608 186.778 210.001 177.941 215.116C169.367 220.08 153.676 214.825 136.945 200.427C122.809 188.263 107.685 169.468 95.0123 147.578Z" clip-rule="evenodd"/></svg>
        </g>
         
        <g transform="translate(300, 0)">
          <svg xmlns="http://www.w3.org/2000/svg" width="256" height="256" fill="none" viewBox="0 0 256 256"><rect width="256" height="256" fill="#242938" rx="60"/><path fill="#fff" d="M121.451 28.0537C121.021 28.0928 119.652 28.2297 118.42 28.3274C90.0137 30.8885 63.4057 46.216 46.5533 69.7742C37.1691 82.8729 31.1672 97.7312 28.8993 113.469C28.0978 118.963 28 120.586 28 128.034C28 135.483 28.0978 137.106 28.8993 142.599C34.3343 180.155 61.0596 211.71 97.306 223.401C103.797 225.493 110.639 226.92 118.42 227.78C121.451 228.112 134.549 228.112 137.58 227.78C151.011 226.294 162.389 222.971 173.611 217.242C175.331 216.363 175.664 216.128 175.429 215.933C175.273 215.815 167.941 205.981 159.144 194.095L143.152 172.492L123.112 142.834C112.086 126.529 103.015 113.195 102.936 113.195C102.858 113.176 102.78 126.353 102.741 142.443C102.682 170.615 102.663 171.749 102.311 172.413C101.803 173.371 101.412 173.762 100.59 174.193C99.9648 174.505 99.4174 174.564 96.4653 174.564H93.0831L92.1838 173.997C91.5973 173.626 91.1672 173.137 90.8739 172.57L90.4633 171.69L90.5024 132.492L90.5611 93.2737L91.1672 92.5112C91.48 92.1007 92.1447 91.5728 92.6139 91.3186C93.4154 90.9276 93.7283 90.8885 97.1105 90.8885C101.099 90.8885 101.763 91.0449 102.8 92.1789C103.093 92.4917 113.943 108.836 126.925 128.523C139.906 148.21 157.658 175.092 166.377 188.288L182.213 212.277L183.015 211.749C190.111 207.135 197.619 200.566 203.562 193.723C216.211 179.197 224.364 161.485 227.101 142.599C227.902 137.106 228 135.483 228 128.034C228 120.586 227.902 118.963 227.101 113.469C221.666 75.913 194.94 44.3587 158.694 32.6676C152.301 30.5953 145.498 29.1681 137.873 28.3079C135.996 28.1124 123.073 27.8973 121.451 28.0537ZM162.389 88.5425C163.327 89.0117 164.09 89.911 164.364 90.8494C164.52 91.3577 164.559 102.228 164.52 126.724L164.461 161.876L158.264 152.374L152.047 142.873V117.321C152.047 100.801 152.125 91.5141 152.242 91.0645C152.555 89.9697 153.239 89.1095 154.178 88.6011C154.979 88.1906 155.273 88.1515 158.342 88.1515C161.236 88.1515 161.744 88.1906 162.389 88.5425Z"/></svg>
        </g>
         
        <g transform="translate(600, 0)">
          <svg width="256" height="256" viewBox="0 0 256 256" fill="none" xmlns="http://www.w3.org/2000/svg">
<rect width="256" height="256" rx="60" fill="#242938"/>
<path fill-rule="evenodd" clip-rule="evenodd" d="M187.903 168.726C189.264 186.214 189.264 194.412 189.264 203.36H148.802C148.802 201.411 148.837 199.628 148.872 197.82C148.982 192.199 149.096 186.338 148.185 174.502C146.982 157.173 139.52 153.323 125.799 153.323H113.643H62.1602V121.795H127.725C145.056 121.795 153.722 116.523 153.722 102.564C153.722 90.2893 145.056 82.8512 127.725 82.8512H62.1602V52H134.946C174.182 52 193.68 70.5318 193.68 100.134C193.68 122.276 179.96 136.716 161.424 139.123C177.071 142.252 186.218 151.157 187.903 168.726V168.726Z" fill="white"/>
<path fill-rule="evenodd" clip-rule="evenodd" d="M187.903 168.726C189.264 186.214 189.264 194.412 189.264 203.36H148.802C148.802 201.411 148.837 199.628 148.872 197.82C148.982 192.199 149.096 186.338 148.185 174.502C146.982 157.173 139.52 153.323 125.799 153.323H113.643H62.1602V121.795H127.725C145.056 121.795 153.722 116.523 153.722 102.564C153.722 90.2893 145.056 82.8512 127.725 82.8512H62.1602V52H134.946C174.182 52 193.68 70.5318 193.68 100.134C193.68 122.276 179.96 136.716 161.424 139.123C177.071 142.252 186.218 151.157 187.903 168.726V168.726Z" fill="white"/>
<path d="M62.1602 203.36V179.857H104.943C112.089 179.857 113.641 185.157 113.641 188.318V203.36H62.1602Z" fill="white"/>
<path d="M62 203.36V203.52H62.16H113.641H113.801V203.36V188.318C113.801 186.716 113.409 184.563 112.1 182.806C110.786 181.041 108.561 179.697 104.943 179.697H62.16H62V179.857V203.36Z" stroke="white" stroke-opacity="0.8" stroke-width="0.32"/>
</svg>

        </g>
         
        <g transform="translate(900, 0)">
          <svg width="256" height="256" viewBox="0 0 256 256" fill="none" xmlns="http://www.w3.org/2000/svg">
<rect width="256" height="256" rx="60" fill="#764ABC"/>
<path d="M166.579 165.599C173.96 164.835 179.559 158.472 179.304 150.837C179.05 143.202 172.687 137.094 165.052 137.094H164.543C156.653 137.348 150.545 143.965 150.799 151.855C151.054 155.673 152.581 158.981 154.871 161.272C146.218 178.324 132.984 190.795 113.132 201.23C99.6432 208.356 85.6452 210.901 71.6472 209.12C60.1944 207.593 51.2866 202.502 45.6874 194.104C37.5431 181.633 36.7796 168.144 43.6513 154.655C48.487 144.983 56.1222 137.857 60.9579 134.294C59.9399 130.986 58.4128 125.386 57.6493 121.314C20.7456 148.038 24.5632 184.178 35.7615 201.23C44.1603 213.955 61.2124 221.845 80.046 221.845C85.1362 221.845 90.2264 221.336 95.3165 220.063C127.894 213.701 152.581 194.358 166.579 165.599V165.599Z" fill="white"/>
<path d="M211.372 134.04C192.03 111.388 163.525 98.9175 130.948 98.9175H126.876C124.585 94.3363 119.749 91.2822 114.405 91.2822H113.896C106.006 91.5367 99.8977 98.154 100.152 106.044C100.407 113.679 106.769 119.787 114.405 119.787H114.914C120.513 119.533 125.349 115.97 127.385 111.134H131.966C151.308 111.134 169.633 116.733 186.176 127.677C198.901 136.076 208.064 147.02 213.154 160.254C217.481 170.943 217.226 181.378 212.645 190.286C205.519 203.775 193.557 211.156 177.777 211.156C167.597 211.156 157.926 208.102 152.835 205.811C150.036 208.356 144.946 212.428 141.383 214.973C152.326 220.063 163.525 222.863 174.214 222.863C198.647 222.863 216.717 209.374 223.589 195.885C230.97 181.124 230.461 155.673 211.372 134.04Z" fill="white"/>
<path d="M82.0822 169.926C82.3367 177.561 88.6994 183.669 96.3347 183.669H96.8437C104.733 183.414 110.842 176.797 110.587 168.907C110.333 161.272 103.97 155.164 96.3347 155.164H95.8256C95.3166 155.164 94.5531 155.164 94.0441 155.419C83.6092 138.112 79.2826 119.278 80.8096 98.9177C81.8277 83.6472 86.9178 70.4127 95.8256 59.4689C103.206 50.0521 117.459 45.4709 127.13 45.2164C154.108 44.7074 165.561 78.3025 166.324 91.7915C169.633 92.555 175.232 94.3365 179.05 95.6091C175.996 54.3787 150.545 33 126.112 33C103.206 33 82.0822 49.543 73.6834 73.9759C61.976 106.553 69.6113 137.857 83.8637 162.545C82.5912 164.326 81.8277 167.126 82.0822 169.926V169.926Z" fill="white"/>
</svg>

        </g>
         
        <g transform="translate(1200, 0)">
          <svg xmlns="http://www.w3.org/2000/svg" width="256" height="256" fill="none" viewBox="0 0 256 256"><rect width="256" height="256" fill="#242938" rx="60"/><path fill="#41B883" d="M182 50H218L128 205.25L38 50H73.55H106.85L128 86L148.7 50H182Z"/><path fill="#41B883" d="M38 50L128 205.25L218 50H182L128 143.15L73.55 50H38Z"/><path fill="#fff" d="M73.55 50L128 143.6L182 50H148.7L128 86L106.85 50H73.55Z"/></svg>
        </g>
         
        <g transform="translate(1500, 0)">
          <svg width="256" height="256" viewBox="0 0 256 256" fill="none" xmlns="http://www.w3.org/2000/svg">
<rect width="256" height="256" rx="60" fill="#242938"/>
<path d="M138.787 189.333H207.559C209.743 189.334 211.889 188.764 213.781 187.681C215.673 186.599 217.243 185.042 218.335 183.166C219.427 181.291 220.001 179.164 220 176.999C219.999 174.834 219.423 172.708 218.329 170.834L172.144 91.5483C171.052 89.6736 169.482 88.1167 167.591 87.0343C165.699 85.952 163.554 85.382 161.37 85.382C159.186 85.382 157.041 85.952 155.149 87.0343C153.258 88.1167 151.688 89.6736 150.596 91.5483L138.787 111.835L115.697 72.1652C114.605 70.2908 113.034 68.7341 111.142 67.6518C109.25 66.5698 107.104 66 104.92 66C102.736 66 100.59 66.5698 98.6982 67.6518C96.8062 68.7341 95.2352 70.2908 94.1427 72.1652L36.6704 170.834C35.5771 172.708 35.001 174.834 35 176.999C34.9991 179.164 35.5733 181.291 36.665 183.166C37.7567 185.042 39.3274 186.599 41.2191 187.681C43.1107 188.764 45.2567 189.334 47.441 189.333H90.6106C107.715 189.333 120.329 181.887 129.008 167.36L150.08 131.191L161.367 111.835L195.24 169.977H150.08L138.787 189.333ZM89.9068 169.957L59.7799 169.95L104.94 92.4316L127.473 131.191L112.386 157.097C106.622 166.523 100.074 169.957 89.9068 169.957Z" fill="#00DC82"/>
</svg>

        </g>
         
        <g transform="translate(1800, 0)">
          <svg width="256" height="256" viewBox="0 0 256 256" fill="none" xmlns="http://www.w3.org/2000/svg">
<g clip-path="url(#clip0_33_887)">
<path d="M196 0H60C26.8629 0 0 26.8629 0 60V196C0 229.137 26.8629 256 60 256H196C229.137 256 256 229.137 256 196V60C256 26.8629 229.137 0 196 0Z" fill="#242938"/>
<g clip-path="url(#clip1_33_887)">
<path fill-rule="evenodd" clip-rule="evenodd" d="M121.463 124.778C136.641 110.336 132.013 92.4779 118.271 70.8393C104.53 49.2007 76.8633 41.5059 71.7008 46.4178C66.5384 51.3298 65.3889 86.443 79.1302 108.082C92.8716 129.72 106.284 139.22 121.463 124.778Z" fill="url(#paint0_linear_33_887)"/>
<path fill-rule="evenodd" clip-rule="evenodd" d="M134.584 126.783C145.808 144.457 160.817 137.992 179.397 120.313C197.978 102.634 205.686 68.774 201.869 62.7628C198.051 56.7515 169.034 57.0574 150.454 74.7361C131.874 92.4148 123.36 109.109 134.584 126.783Z" fill="url(#paint1_linear_33_887)"/>
<path fill-rule="evenodd" clip-rule="evenodd" d="M128.444 117.059C147.08 119.342 154.412 102.14 157.834 74.3371C161.255 46.5337 147.173 17.1501 140.834 16.3735C134.496 15.597 113.196 40.6461 109.775 68.4495C106.353 96.2529 109.807 114.775 128.444 117.059Z" fill="url(#paint2_linear_33_887)"/>
<path fill-rule="evenodd" clip-rule="evenodd" d="M123.756 240C162.84 240 194.536 228.661 194.536 177.24C194.536 125.819 162.84 83.6226 123.756 83.6226C84.6715 83.6226 53 125.819 53 177.24C53 228.661 84.6715 240 123.756 240Z" fill="url(#paint3_linear_33_887)"/>
<path d="M159.505 166.742C165.088 166.742 169.614 164.64 169.614 162.046C169.614 159.453 165.088 157.35 159.505 157.35C153.921 157.35 149.395 159.453 149.395 162.046C149.395 164.64 153.921 166.742 159.505 166.742Z" fill="#EAADCC"/>
<path d="M84.637 163.889C90.1789 164.569 94.928 163.033 95.2444 160.459C95.5609 157.885 91.325 155.247 85.7831 154.567C80.2413 153.888 75.4922 155.424 75.1757 157.998C74.8592 160.572 79.0952 163.21 84.637 163.889Z" fill="#EAADCC"/>
<path d="M130.232 160.383C127.19 162.853 123.675 163.86 119.689 163.405C115.703 162.95 112.748 161.298 110.825 158.447" stroke="black" stroke-width="6" stroke-linecap="round" stroke-linejoin="round"/>
<path fill-rule="evenodd" clip-rule="evenodd" d="M91.079 135.944C93.8691 135.847 96.4345 136.888 98.3268 138.651C100.219 140.413 101.438 142.896 101.536 145.683C101.633 148.47 100.591 151.032 98.8265 152.921C97.0621 154.811 94.5757 156.028 91.7855 156.126C88.9956 156.223 86.4304 155.181 84.5383 153.419C82.6462 151.657 81.4272 149.173 81.3297 146.387C81.2321 143.6 82.2745 141.038 84.0387 139.148C85.803 137.259 88.2891 136.041 91.079 135.944Z" fill="black"/>
<path fill-rule="evenodd" clip-rule="evenodd" d="M91.6101 144.384C91.5466 142.57 90.0218 141.15 88.206 141.213C86.3891 141.277 84.9678 142.799 85.0314 144.613C85.0949 146.428 86.6192 147.847 88.436 147.784C90.2518 147.72 91.6737 146.198 91.6101 144.384Z" fill="white"/>
<path fill-rule="evenodd" clip-rule="evenodd" d="M152.335 138.507C155.125 138.41 157.69 139.451 159.582 141.213C161.475 142.975 162.694 145.459 162.791 148.245C162.889 151.032 161.846 153.594 160.082 155.484C158.318 157.374 155.832 158.591 153.041 158.688C150.251 158.785 147.686 157.744 145.794 155.981C143.902 154.219 142.683 151.736 142.585 148.949C142.487 146.163 143.53 143.601 145.294 141.711C147.059 139.821 149.545 138.604 152.335 138.507Z" fill="black"/>
<path d="M100.126 145.732C100.294 150.528 96.5381 154.551 91.7367 154.718C86.9357 154.885 82.9079 151.133 82.7398 146.337C82.5717 141.541 86.3271 137.519 91.128 137.352C95.9295 137.185 99.9578 140.936 100.126 145.732ZM102.945 145.634C102.723 139.283 97.3878 134.314 91.0293 134.536C84.6713 134.757 79.6979 140.084 79.9205 146.435C80.1431 152.786 85.4772 157.755 91.8354 157.534C98.194 157.313 103.168 151.985 102.945 145.634Z" fill="white" stroke="white" stroke-width="3"/>
<path d="M161.381 148.295C161.549 153.091 157.794 157.114 152.993 157.281C148.192 157.448 144.163 153.696 143.995 148.9C143.827 144.104 147.583 140.081 152.384 139.914C157.185 139.747 161.213 143.499 161.381 148.295ZM164.201 148.197C163.978 141.846 158.644 136.877 152.285 137.098C145.927 137.32 140.953 142.647 141.176 148.998C141.398 155.349 146.733 160.318 153.091 160.097C159.45 159.875 164.423 154.548 164.201 148.197Z" fill="white" stroke="white" stroke-width="3"/>
<path fill-rule="evenodd" clip-rule="evenodd" d="M152.865 146.947C152.802 145.133 151.277 143.713 149.461 143.776C147.645 143.839 146.223 145.361 146.287 147.176C146.35 148.99 147.875 150.41 149.691 150.347C151.508 150.284 152.929 148.761 152.865 146.947Z" fill="white"/>
<path d="M70.1631 182.004L104.959 218.163" stroke="#ECB732" stroke-width="11" stroke-linecap="round"/>
<path d="M100.257 186.23L78.1567 209.711" stroke="#ECB732" stroke-width="11" stroke-linecap="round"/>
<path d="M176.903 182.004L142.107 218.163" stroke="#ECB732" stroke-width="11" stroke-linecap="round"/>
<path d="M146.809 186.23L168.909 209.711" stroke="#ECB732" stroke-width="11" stroke-linecap="round"/>
<path d="M137.875 102.172L114.834 125.182" stroke="#FFC73B" stroke-width="11" stroke-linecap="round"/>
<path d="M133.173 125.182L110.132 102.172" stroke="#FFC73B" stroke-width="11" stroke-linecap="round"/>
</g>
</g>
<defs>
<linearGradient id="paint0_linear_33_887" x1="7650.74" y1="-5867.43" x2="13921.9" y2="11695.8" gradientUnits="userSpaceOnUse">
<stop stop-color="#52CE63"/>
<stop offset="1" stop-color="#51A256"/>
</linearGradient>
<linearGradient id="paint1_linear_33_887" x1="6131.59" y1="7642.74" x2="-11449.7" y2="13929.1" gradientUnits="userSpaceOnUse">
<stop stop-color="#52CE63"/>
<stop offset="1" stop-color="#51A256"/>
</linearGradient>
<linearGradient id="paint2_linear_33_887" x1="7781.96" y1="952.47" x2="4321.49" y2="29199.5" gradientUnits="userSpaceOnUse">
<stop stop-color="#8AE99C"/>
<stop offset="1" stop-color="#52CE63"/>
</linearGradient>
<linearGradient id="paint3_linear_33_887" x1="23250" y1="13116.7" x2="19508.6" y2="74634.6" gradientUnits="userSpaceOnUse">
<stop stop-color="#FFE56C"/>
<stop offset="1" stop-color="#FFC63A"/>
</linearGradient>
<clipPath id="clip0_33_887">
<rect width="256" height="256" fill="white"/>
</clipPath>
<clipPath id="clip1_33_887">
<rect width="150" height="224" fill="white" transform="translate(53 16)"/>
</clipPath>
</defs>
</svg>

        </g>
         
        <g transform="translate(2100, 0)">
          <svg xmlns="http://www.w3.org/2000/svg" width="256" height="256" fill="none" viewBox="0 0 256 256"><rect width="256" height="256" fill="#2B2E3A" rx="60"/><path fill="#9FEAF9" d="M100.768 70.772C74.763 66.036 54.201 70.993 46.006 85.187C39.891 95.779 41.639 109.822 50.246 124.833C50.4159 125.145 50.6464 125.419 50.924 125.641C51.2015 125.862 51.5204 126.026 51.8621 126.123C52.2038 126.219 52.5614 126.247 52.9138 126.203C53.2662 126.16 53.6064 126.047 53.9144 125.87C54.2225 125.693 54.4921 125.457 54.7076 125.175C54.923 124.892 55.0799 124.57 55.1691 124.226C55.2583 123.883 55.278 123.525 55.2269 123.173C55.1759 122.822 55.0552 122.484 54.872 122.18C47.12 108.658 45.611 96.539 50.625 87.854C57.433 76.063 75.773 71.641 99.812 76.019C100.503 76.134 101.211 75.9727 101.784 75.5699C102.357 75.1671 102.748 74.5552 102.874 73.8663C102.999 73.1773 102.849 72.4666 102.455 71.8877C102.061 71.3088 101.455 70.908 100.768 70.772V70.772ZM63.769 143.079C74.284 154.634 87.945 165.473 103.525 174.467C141.248 196.247 181.408 202.068 201.2 188.573C201.496 188.379 201.75 188.127 201.948 187.833C202.146 187.54 202.283 187.209 202.352 186.862C202.421 186.515 202.42 186.157 202.349 185.81C202.278 185.463 202.139 185.134 201.939 184.841C201.74 184.548 201.484 184.298 201.187 184.106C200.89 183.913 200.557 183.782 200.208 183.719C199.86 183.656 199.502 183.663 199.157 183.74C198.811 183.817 198.484 183.962 198.195 184.167C180.481 196.245 142.333 190.715 106.192 169.849C91.078 161.123 77.849 150.627 67.714 139.489C67.4787 139.228 67.1942 139.017 66.877 138.866C66.5597 138.716 66.2159 138.63 65.8652 138.613C65.5145 138.595 65.1639 138.648 64.8334 138.766C64.5029 138.885 64.1991 139.067 63.9395 139.304C63.6798 139.54 63.4693 139.825 63.3202 140.143C63.171 140.461 63.086 140.805 63.0702 141.156C63.0544 141.507 63.1079 141.857 63.2278 142.187C63.3478 142.517 63.5316 142.82 63.769 143.079V143.079Z"/><path fill="#9FEAF9" d="M194.886 139.835C211.914 119.719 217.859 99.487 209.681 85.323C203.664 74.9 190.943 69.397 174.036 69.177C173.335 69.178 172.663 69.4548 172.165 69.9474C171.667 70.44 171.382 71.1089 171.373 71.8095C171.364 72.5101 171.631 73.1862 172.116 73.6915C172.602 74.1968 173.267 74.4908 173.967 74.51C189.172 74.708 200.132 79.449 205.063 87.99C211.855 99.755 206.553 117.797 190.815 136.389C190.584 136.656 190.408 136.965 190.298 137.301C190.188 137.636 190.145 137.989 190.172 138.341C190.199 138.693 190.296 139.035 190.457 139.349C190.617 139.664 190.839 139.943 191.108 140.171C191.377 140.398 191.689 140.571 192.025 140.677C192.362 140.784 192.716 140.823 193.067 140.791C193.418 140.76 193.76 140.66 194.072 140.495C194.385 140.331 194.661 140.107 194.886 139.835V139.835ZM151.125 71.66C135.729 74.959 119.341 81.409 103.603 90.495C64.661 112.978 39.258 146.131 42.786 170.17C42.833 170.52 42.949 170.857 43.1273 171.161C43.3055 171.466 43.5425 171.732 43.8244 171.945C44.1063 172.157 44.4276 172.311 44.7696 172.399C45.1116 172.486 45.4675 172.505 45.8167 172.453C46.1659 172.402 46.5015 172.282 46.8039 172.1C47.1064 171.918 47.3697 171.678 47.5787 171.393C47.7876 171.109 47.938 170.786 48.0211 170.443C48.1043 170.1 48.1185 169.744 48.063 169.395C44.93 148.051 69.01 116.626 106.27 95.114C121.537 86.299 137.405 80.054 152.242 76.875C152.589 76.8066 152.919 76.6697 153.213 76.4724C153.507 76.2751 153.759 76.0212 153.953 75.7257C154.148 75.4302 154.282 75.0988 154.347 74.751C154.413 74.4032 154.408 74.0458 154.334 73.6998C154.26 73.3537 154.118 73.0259 153.916 72.7353C153.713 72.4448 153.456 72.1974 153.157 72.0075C152.858 71.8177 152.525 71.6892 152.176 71.6295C151.827 71.5699 151.47 71.5802 151.125 71.66Z"/><path fill="#9FEAF9" d="M88.036 186.835C96.94 211.695 111.505 227.002 127.883 227.002C139.828 227.002 150.879 218.859 159.497 204.524C159.684 204.224 159.808 203.889 159.865 203.54C159.921 203.191 159.907 202.835 159.824 202.491C159.741 202.147 159.591 201.824 159.381 201.539C159.172 201.254 158.909 201.013 158.606 200.831C158.303 200.649 157.966 200.529 157.617 200.478C157.267 200.427 156.91 200.446 156.568 200.534C156.226 200.622 155.904 200.777 155.622 200.99C155.34 201.203 155.104 201.471 154.926 201.776C147.181 214.659 137.668 221.668 127.883 221.668C114.278 221.668 101.287 208.016 93.058 185.038C92.9453 184.702 92.7666 184.391 92.5323 184.125C92.2981 183.858 92.013 183.641 91.6938 183.486C91.3746 183.331 91.0277 183.241 90.6734 183.222C90.3191 183.203 89.9645 183.255 89.6304 183.374C89.2963 183.494 88.9895 183.679 88.7278 183.918C88.4662 184.158 88.2549 184.448 88.1065 184.77C87.9582 185.092 87.8756 185.441 87.8636 185.795C87.8517 186.15 87.9106 186.504 88.037 186.835H88.036ZM169.358 181.972C173.968 167.244 176.443 150.254 176.443 132.549C176.443 88.3701 160.98 50.2861 138.956 40.5071C138.313 40.2376 137.589 40.2309 136.941 40.4885C136.293 40.746 135.771 41.2473 135.488 41.8848C135.205 42.5223 135.183 43.2454 135.427 43.899C135.671 44.5525 136.161 45.0846 136.792 45.3811C156.435 54.1041 171.109 90.2471 171.109 132.549C171.109 149.726 168.712 166.179 164.269 180.379C164.159 180.715 164.116 181.069 164.144 181.422C164.172 181.774 164.269 182.117 164.431 182.432C164.592 182.746 164.815 183.025 165.085 183.253C165.356 183.48 165.669 183.652 166.006 183.757C166.343 183.863 166.698 183.9 167.05 183.867C167.402 183.835 167.744 183.732 168.056 183.566C168.368 183.4 168.644 183.174 168.867 182.9C169.091 182.626 169.258 182.311 169.359 181.972H169.358ZM219.582 179.36C219.582 172.311 213.868 166.597 206.819 166.597C199.77 166.597 194.056 172.311 194.056 179.36C194.056 186.409 199.77 192.123 206.819 192.123C213.868 192.123 219.582 186.409 219.582 179.36ZM214.249 179.36C214.249 180.336 214.057 181.302 213.683 182.203C213.31 183.105 212.763 183.924 212.073 184.614C211.383 185.304 210.564 185.851 209.662 186.225C208.761 186.598 207.795 186.79 206.819 186.79C205.843 186.79 204.877 186.598 203.976 186.225C203.074 185.851 202.255 185.304 201.565 184.614C200.875 183.924 200.328 183.105 199.955 182.203C199.581 181.302 199.389 180.336 199.389 179.36C199.389 177.39 200.172 175.5 201.565 174.106C202.959 172.713 204.848 171.93 206.819 171.93C208.79 171.93 210.679 172.713 212.073 174.106C213.466 175.5 214.249 177.39 214.249 179.36ZM48.763 192.123C55.813 192.123 61.527 186.409 61.527 179.36C61.527 172.311 55.812 166.597 48.763 166.597C41.715 166.597 36 172.311 36 179.36C36 186.409 41.715 192.123 48.763 192.123ZM48.763 186.79C46.7924 186.79 44.9026 186.007 43.5092 184.614C42.1158 183.221 41.333 181.331 41.333 179.36C41.333 177.39 42.1158 175.5 43.5092 174.106C44.9026 172.713 46.7924 171.93 48.763 171.93C50.7336 171.93 52.6234 172.713 54.0168 174.106C55.4102 175.5 56.193 177.39 56.193 179.36C56.193 181.331 55.4102 183.221 54.0168 184.614C52.6234 186.007 50.7336 186.79 48.763 186.79V186.79Z"/><path fill="#9FEAF9" d="M127.883 53.526C134.932 53.526 140.646 47.812 140.646 40.763C140.646 33.714 134.932 28 127.883 28C120.834 28 115.12 33.714 115.12 40.763C115.12 47.812 120.834 53.526 127.883 53.526V53.526ZM127.883 48.193C125.912 48.193 124.023 47.4102 122.629 46.0168C121.236 44.6234 120.453 42.7336 120.453 40.763C120.453 38.7924 121.236 36.9026 122.629 35.5092C124.023 34.1158 125.912 33.333 127.883 33.333C129.854 33.333 131.743 34.1158 133.137 35.5092C134.53 36.9026 135.313 38.7924 135.313 40.763C135.313 42.7336 134.53 44.6234 133.137 46.0168C131.743 47.4102 129.854 48.193 127.883 48.193V48.193ZM129.832 141.575C124.847 142.652 119.936 139.484 118.857 134.499C118.34 132.105 118.795 129.604 120.122 127.546C121.449 125.488 123.539 124.041 125.933 123.523C130.918 122.446 135.829 125.614 136.909 130.599C137.986 135.584 134.818 140.496 129.832 141.575Z"/></svg>
        </g>
        
  </svg>
  