
  <svg width="441.75" height="48" viewBox="0 0 2356 256" fill="none" xmlns="http://www.w3.org/2000/svg" xmlns:xlink="http://www.w3.org/1999/xlink" version="1.1">
    
        <g transform="translate(0, 0)">
          <svg width="256" height="256" viewBox="0 0 256 256" fill="none" xmlns="http://www.w3.org/2000/svg">
<rect width="256" height="256" rx="60" fill="#242938"/>
<path d="M128.222 18L225.443 73V183L128.222 238L31 183V73L128.222 18Z" fill="white"/>
<path d="M208.082 179.205L131.43 222.563V188.793L179.188 162.522L208.082 179.205ZM213.325 174.457V83.7798L185.275 99.9682V158.25L213.325 174.457ZM48.05 179.205L124.702 222.563V188.793L76.9433 162.522L48.05 179.205V179.205ZM42.8066 174.457V83.7798L70.8566 99.9682V158.25L42.8066 174.457V174.457ZM46.0883 77.9132L124.702 33.4365V66.0882L74.34 93.7899L73.955 94.0099L46.0883 77.9132V77.9132ZM210.043 77.9132L131.43 33.4365V66.0882L181.792 93.7899L182.177 94.0099L210.043 77.9132V77.9132Z" fill="#8ED6FB"/>
<path d="M124.702 181.111L77.585 155.206V103.873L124.702 131.08V181.111ZM131.43 181.111L178.547 155.206V103.873L131.43 131.08V181.111ZM80.775 97.933L128.075 71.918L175.375 97.933L128.075 125.25L80.775 97.933V97.933Z" fill="#1C78C0"/>
</svg>

        </g>
         
        <g transform="translate(300, 0)">
          <svg width="256" height="256" viewBox="0 0 256 256" fill="none" xmlns="http://www.w3.org/2000/svg">
<rect width="256" height="256" rx="60" fill="#242938"/>
<path d="M227.088 57.6016L133.256 225.389C131.318 228.854 126.341 228.874 124.375 225.427L28.6823 57.6177C26.54 53.861 29.7524 49.3105 34.0096 50.0715L127.942 66.8613C128.541 66.9684 129.155 66.9674 129.754 66.8582L221.722 50.0955C225.965 49.3222 229.192 53.8374 227.088 57.6016Z" fill="url(#paint0_linear_307_179)"/>
<path d="M172.687 28.0492L103.249 41.6554C102.107 41.879 101.262 42.8462 101.194 44.007L96.9221 116.148C96.8216 117.847 98.3821 119.166 100.04 118.783L119.373 114.322C121.182 113.905 122.816 115.498 122.445 117.317L116.701 145.443C116.314 147.336 118.092 148.954 119.94 148.393L131.881 144.765C133.732 144.203 135.511 145.826 135.119 147.721L125.991 191.9C125.42 194.664 129.096 196.171 130.629 193.801L131.653 192.219L188.235 79.2992C189.183 77.4085 187.549 75.2526 185.472 75.6534L165.573 79.494C163.703 79.8545 162.112 78.113 162.639 76.2834L175.628 31.2582C176.156 29.4255 174.559 27.6825 172.687 28.0492Z" fill="url(#paint1_linear_307_179)"/>
<defs>
<linearGradient id="paint0_linear_307_179" x1="26.3459" y1="44.075" x2="143.127" y2="202.673" gradientUnits="userSpaceOnUse">
<stop stop-color="#41D1FF"/>
<stop offset="1" stop-color="#BD34FE"/>
</linearGradient>
<linearGradient id="paint1_linear_307_179" x1="122.551" y1="31.7433" x2="143.676" y2="176.66" gradientUnits="userSpaceOnUse">
<stop stop-color="#FFEA83"/>
<stop offset="0.0833333" stop-color="#FFDD35"/>
<stop offset="1" stop-color="#FFA800"/>
</linearGradient>
</defs>
</svg>

        </g>
         
        <g transform="translate(600, 0)">
          <svg width="256" height="256" viewBox="0 0 256 256" fill="none" xmlns="http://www.w3.org/2000/svg">
<g clip-path="url(#clip0_33_588)">
<path d="M196 0H60C26.8629 0 0 26.8629 0 60V196C0 229.137 26.8629 256 60 256H196C229.137 256 256 229.137 256 196V60C256 26.8629 229.137 0 196 0Z" fill="#242938"/>
<g clip-path="url(#clip1_33_588)">
<path d="M23 88H233V156.571H128V168H81.3333V156.571H23V88ZM34.6667 145.143H58V110.857H69.6667V145.143H81.3333V99.4286H34.6667V145.143ZM93 99.4286V156.571H116.333V145.143H139.667V99.4286H93ZM116.333 110.857H128V133.714H116.333V110.857ZM151.333 99.4286V145.143H174.667V110.857H186.333V145.143H198V110.857H209.667V145.143H221.333V99.4286H151.333Z" fill="#CB3837"/>
<path d="M34.6667 145.143H58V110.857H69.6667V145.143H81.3334V99.4286H34.6667V145.143Z" fill="white"/>
<path d="M93 99.4286V156.571H116.333V145.143H139.667V99.4286H93ZM128 133.714H116.333V110.857H128V133.714Z" fill="white"/>
<path d="M151.333 99.4286V145.143H174.667V110.857H186.333V145.143H198V110.857H209.667V145.143H221.333V99.4286H151.333Z" fill="white"/>
</g>
</g>
<defs>
<clipPath id="clip0_33_588">
<rect width="256" height="256" fill="white"/>
</clipPath>
<clipPath id="clip1_33_588">
<rect width="210" height="80" fill="white" transform="translate(23 88)"/>
</clipPath>
</defs>
</svg>

        </g>
         
        <g transform="translate(900, 0)">
          <svg width="256" height="256" viewBox="0 0 256 256" fill="none" xmlns="http://www.w3.org/2000/svg">
<g clip-path="url(#clip0_33_528)">
<path d="M196 0H60C26.8629 0 0 26.8629 0 60V196C0 229.137 26.8629 256 60 256H196C229.137 256 256 229.137 256 196V60C256 26.8629 229.137 0 196 0Z" fill="#242938"/>
<g clip-path="url(#clip1_33_528)">
<path d="M128.045 28C182.695 28.1073 226.564 71.5842 227.967 125.288C229.453 182.971 182.456 229.288 125.709 227.975C72.6527 226.77 30.4436 184.432 28.1074 132.635C25.507 75.2327 71.431 27.9588 128.045 28Z" fill="#3398C2"/>
<path d="M91.2105 98.0318C91.8626 95.4976 92.8037 93.046 94.009 90.7099C95.1895 88.4565 96.8736 86.7725 99.3171 85.9636C101.067 85.394 102.528 84.3869 103.841 83.058C108.472 78.4024 114.094 75.6949 120.632 74.9685C121.705 74.8612 122.25 74.465 122.663 73.4579C123.645 71.0723 124.867 68.7776 126.485 66.7469C128.623 64.0559 131.182 62.0501 134.881 62.2647C137.217 62.3968 139.165 63.3791 140.585 65.2611C142.178 67.3578 143.359 69.7021 144.498 72.0629C144.87 72.8305 145.175 73.1112 146.116 72.9131C149.567 72.1454 152.365 73.656 153.851 76.867C155.577 80.6229 156.41 84.6016 156.823 88.6711C157.698 97.132 157.129 105.461 154.264 113.567C152.58 118.33 150.219 122.746 147.338 126.898C146.991 127.402 146.9 127.732 147.379 128.252C155.098 136.911 158.879 147.006 158.441 158.637V159.471C158.986 159.495 159.407 159.165 159.82 158.942C163.229 157.192 166.333 154.964 169.767 153.238C174.597 150.811 179.649 149.111 185.13 149.152C193.237 149.218 198.446 157.11 195.053 164.143C193.716 166.916 191.537 168.889 188.54 169.541C183.075 170.763 178.221 173.239 173.59 176.277C165.962 181.345 157.607 185.109 148.865 187.99C148.279 188.188 147.726 188.428 147.222 188.824C144.886 190.574 142.154 191.292 139.306 191.688C130.671 192.893 121.994 193.413 113.293 193.785C109.71 193.942 106.144 193.455 102.974 191.556C102.124 191.028 101.381 190.045 100.506 189.897C99.6556 189.765 98.6897 190.549 97.7486 190.772C92.1763 192.018 86.9508 190.97 82.1214 188.04C79.2569 186.314 77.903 183.582 78.0516 180.214C78.0929 179.315 77.837 178.662 77.3086 177.944C74.9889 174.708 73.8579 171.019 73.2223 167.123C71.9757 159.454 74.7082 153.114 79.777 147.559C80.2558 147.031 80.4291 146.511 80.4291 145.809C80.4291 138.141 81.8903 130.835 85.8281 124.149C88.0322 120.41 90.8803 117.199 94.0503 114.293C94.6612 113.748 94.7272 113.377 94.3145 112.675C92.9771 110.447 92.1516 107.995 91.4251 105.502C90.8142 105.065 91.2105 104.388 90.9628 103.843C90.9216 103.43 90.9628 103.009 90.8307 102.597V99.8643C90.9381 99.468 90.9381 99.0553 90.9381 98.6426C91.0371 98.4445 90.9958 98.1803 91.2105 98.0318Z" fill="#FEFEFE"/>
<path d="M91.1444 103.826C91.3178 104.371 91.1032 104.982 91.4251 105.51C91.3343 105.576 91.3343 106.014 91.2105 105.709C90.9711 105.122 90.7977 104.462 90.7977 103.826C90.7564 101.73 90.5583 99.6084 91.1444 97.5283C91.1692 97.7016 91.1857 97.875 91.2352 98.0318C91.2105 98.2299 91.194 98.428 91.1692 98.6014C90.9711 98.9728 91.194 99.4103 90.9958 99.7818V102.646C91.1444 103.018 90.9546 103.455 91.1444 103.826Z" fill="#3298C3"/>
<path d="M152.572 159.776C152.572 161.79 152.109 163.755 151.854 165.719C151.639 167.444 151.812 167.643 153.562 167.337C157.5 166.66 161.058 165.001 164.492 163.053C168.166 160.956 171.666 158.571 175.596 157.002C178.634 155.781 181.738 154.972 185.04 154.972C187.904 154.972 189.894 156.524 190.24 158.975C190.571 161.245 189.324 163.416 187.046 163.895C180.532 165.274 174.91 168.485 169.429 172.051C162.082 176.797 154.082 180.223 145.753 182.848C145.447 182.938 145.051 183.004 144.853 183.194C142.888 185.274 140.288 185.621 137.663 185.968C130.299 186.934 122.886 187.363 115.456 187.8C113.318 187.932 111.172 187.998 109.034 187.586C105.624 186.909 104.179 185.638 103.659 182.839C103.197 180.322 104.378 177.944 106.895 176.302C107.16 176.128 107.44 175.955 107.861 175.691C106.507 174.857 105.393 173.875 104.543 172.653C104.13 172.084 103.907 172.439 103.775 172.917C103.362 174.494 102.941 176.087 102.528 177.664C102.248 178.712 101.893 179.744 101.455 180.743C100.184 183.648 97.8725 185.051 94.8098 185.332C91.681 185.613 88.7339 184.919 85.9354 183.541C84.0119 182.6 83.4423 181.18 84.0779 179.1C84.4081 177.986 85.0438 177.02 85.8033 175.839C83.1616 176.368 81.9976 174.832 81.0813 172.975C79.0257 168.906 78.324 164.605 79.1578 160.147C79.8347 156.606 81.9151 153.725 84.4081 151.233C85.8693 149.771 86.3069 148.368 86.2656 146.313C85.9354 134.443 90.418 124.694 99.6473 117.158C100.456 116.481 101.265 115.779 102.116 115.168C102.644 114.797 102.702 114.557 102.273 114.013C99.8867 111.016 98.0293 107.764 97.179 103.983C96.2132 99.724 97.6578 96.0259 99.8042 92.4847C100.11 92.006 100.588 91.7666 101.117 91.5685C103.808 90.6027 106.078 89.1416 108.134 87.0862C112.765 82.4554 118.494 80.334 125.049 80.6147C125.883 80.6559 126.254 80.4165 126.51 79.6324C127.492 76.768 128.714 74.011 130.357 71.4603C130.968 70.4946 131.645 69.6031 132.52 68.8849C134.138 67.5477 135.516 67.7458 136.606 69.5205C138.62 72.7315 140.172 76.1902 141.741 79.6406C142.137 80.5156 142.443 80.821 143.359 80.2267C144.432 79.5498 145.629 79.0711 146.834 78.6501C147.8 78.3199 148.362 78.5428 148.783 79.5498C150.004 82.4967 150.665 85.5839 151.036 88.7537C151.144 89.6286 151.342 90.4789 151.234 91.3539C151.168 93.2524 151.259 95.1592 151.276 97.0825C151.276 97.9328 150.97 98.7912 151.234 99.658C151.036 104.858 149.658 109.778 147.652 114.541C145.769 118.998 143.037 122.952 140.304 126.915C139.231 128.442 139.256 128.466 140.651 129.713C147.47 135.854 151.234 143.572 152.497 152.578C152.539 152.925 152.522 153.296 152.522 153.668C152.242 154.501 152.547 155.31 152.564 156.119C152.638 157.349 152.357 158.579 152.572 159.776Z" fill="#3398C2"/>
<path d="M151.259 99.6744C150.995 99.4598 151.061 99.1461 151.061 98.8655V92.1958C151.061 91.9151 150.995 91.6097 151.259 91.3868C151.548 94.1439 151.565 96.9174 151.259 99.6744Z" fill="#2B95C1"/>
<path d="M152.572 159.776C152.134 158.092 152.481 156.392 152.374 154.708C152.349 154.361 152.242 153.965 152.572 153.684C152.852 155.715 152.811 157.745 152.572 159.776Z" fill="#2693BF"/>
<path d="M90.9711 99.7817C90.9958 99.3855 90.7977 98.948 91.1444 98.6013C91.1444 98.9893 91.1692 99.4103 90.9711 99.7817ZM91.1444 103.826C90.8142 103.48 90.9876 103.042 90.9711 102.646C91.1939 103.018 91.1444 103.43 91.1444 103.826Z" fill="#3398C2"/>
</g>
</g>
<defs>
<clipPath id="clip0_33_528">
<rect width="256" height="256" fill="white"/>
</clipPath>
<clipPath id="clip1_33_528">
<rect width="200" height="200" fill="white" transform="translate(28 28)"/>
</clipPath>
</defs>
</svg>

        </g>
         
        <g transform="translate(1200, 0)">
          <svg width="256" height="256" viewBox="0 0 256 256" fill="none" xmlns="http://www.w3.org/2000/svg">
<g clip-path="url(#clip0_33_608)">
<path d="M196 0H60C26.8629 0 0 26.8629 0 60V196C0 229.137 26.8629 256 60 256H196C229.137 256 256 229.137 256 196V60C256 26.8629 229.137 0 196 0Z" fill="#242938"/>
<rect x="40" y="41" width="55" height="55" fill="#F9AD00"/>
<rect x="100" y="41" width="55" height="55" fill="#F9AD00"/>
<rect x="160" y="41" width="55" height="55" fill="#F9AD00"/>
<rect x="160" y="101" width="55" height="55" fill="#F9AD00"/>
<rect x="160" y="161" width="55" height="55" fill="#4E4E4E"/>
<rect x="100" y="161" width="55" height="55" fill="#4E4E4E"/>
<rect x="40" y="161" width="55" height="55" fill="#4E4E4E"/>
<rect x="40" y="101" width="55" height="55" fill="#242938"/>
<rect x="100" y="101" width="55" height="55" fill="#4E4E4E"/>
</g>
<defs>
<clipPath id="clip0_33_608">
<rect width="256" height="256" fill="white"/>
</clipPath>
</defs>
</svg>

        </g>
         
        <g transform="translate(1500, 0)">
          <svg xmlns="http://www.w3.org/2000/svg" width="256" height="256" fill="none" viewBox="0 0 256 256"><rect width="256" height="256" fill="#242938" rx="60"/><path stroke="#fff" stroke-width="10" d="M217 69H39C33.4772 69 29 73.4772 29 79V177C29 182.523 33.4772 187 39 187H217C222.523 187 227 182.523 227 177V79C227 73.4772 222.523 69 217 69Z"/><path fill="#fff" d="M54 162V94H74L94 119L114 94H134V162H114V123L94 148L74 123V162H54ZM179 162L149 129H169V94H189V129H209L179 162Z"/></svg>
        </g>
         
        <g transform="translate(1800, 0)">
          <svg xmlns="http://www.w3.org/2000/svg" width="256" height="256" fill="none" viewBox="0 0 256 256"><rect width="256" height="256" fill="#F03C2E" rx="60"/><g clip-path="url(#clip0_7_283)"><path fill="#fff" d="M224.225 119.094L136.906 31.775C135.711 30.5787 134.291 29.6298 132.729 28.9824C131.166 28.3349 129.491 28.0017 127.8 28.0017C126.109 28.0017 124.434 28.3349 122.871 28.9824C121.309 29.6298 119.889 30.5787 118.694 31.775L100.569 49.9L123.569 72.9C128.919 71.025 135.044 72.3062 139.306 76.5687C141.335 78.6014 142.752 81.1638 143.394 83.9632C144.036 86.7626 143.878 89.6862 142.937 92.4L165.106 114.569C170.469 112.719 176.656 113.912 180.937 118.206C182.361 119.63 183.49 121.32 184.26 123.18C185.03 125.04 185.426 127.033 185.426 129.046C185.425 131.059 185.029 133.052 184.258 134.912C183.487 136.771 182.358 138.461 180.934 139.884C179.511 141.308 177.821 142.436 175.961 143.206C174.101 143.977 172.108 144.373 170.095 144.372C168.082 144.372 166.088 143.975 164.229 143.205C162.369 142.434 160.679 141.305 159.256 139.881C154.756 135.381 153.644 128.756 155.919 123.212L135.244 102.537V156.944C136.745 157.686 138.116 158.666 139.306 159.844C140.729 161.267 141.858 162.956 142.629 164.816C143.399 166.675 143.795 168.668 143.795 170.681C143.795 172.694 143.399 174.687 142.629 176.546C141.858 178.406 140.729 180.096 139.306 181.519C137.883 182.942 136.193 184.071 134.334 184.841C132.474 185.611 130.481 186.008 128.469 186.008C126.456 186.008 124.463 185.611 122.604 184.841C120.744 184.071 119.054 182.942 117.631 181.519C116.206 180.096 115.076 178.407 114.305 176.548C113.533 174.688 113.136 172.694 113.136 170.681C113.136 168.668 113.533 166.675 114.305 164.815C115.076 162.955 116.206 161.266 117.631 159.844C119.112 158.369 120.756 157.25 122.65 156.5V101.587C120.825 100.837 119.112 99.7312 117.631 98.2437C115.479 96.0943 114.016 93.3526 113.428 90.3684C112.841 87.3841 113.155 84.2924 114.331 81.4875L91.6437 58.8125L31.7687 118.625C30.5716 119.821 29.6219 121.241 28.9739 122.804C28.3259 124.367 27.9924 126.042 27.9924 127.734C27.9924 129.426 28.3259 131.102 28.9739 132.665C29.6219 134.228 30.5716 135.648 31.7687 136.844L119.094 224.156C120.289 225.352 121.709 226.301 123.271 226.949C124.834 227.596 126.509 227.929 128.2 227.929C129.891 227.929 131.566 227.596 133.129 226.949C134.691 226.301 136.111 225.352 137.306 224.156L224.225 137.375C225.422 136.179 226.372 134.759 227.02 133.196C227.668 131.633 228.001 129.958 228.001 128.266C228.001 126.574 227.668 124.898 227.02 123.335C226.372 121.772 225.422 120.352 224.225 119.156"/></g><defs><clipPath id="clip0_7_283"><rect width="200" height="200" fill="#fff" transform="translate(28 28)"/></clipPath></defs></svg>
        </g>
         
        <g transform="translate(2100, 0)">
          <svg width="256" height="256" viewBox="0 0 256 256" fill="none" xmlns="http://www.w3.org/2000/svg">
<rect width="256" height="256" rx="60" fill="#242938"/>
<path d="M128.001 30C72.7791 30 28 74.7708 28 130.001C28 174.184 56.6533 211.668 96.3867 224.891C101.384 225.817 103.219 222.722 103.219 220.081C103.219 217.696 103.126 209.819 103.083 201.463C75.2631 207.512 69.3927 189.664 69.3927 189.664C64.8437 178.105 58.2894 175.032 58.2894 175.032C49.2163 168.825 58.9733 168.953 58.9733 168.953C69.0151 169.658 74.3026 179.258 74.3026 179.258C83.2217 194.546 97.6965 190.126 103.403 187.571C104.301 181.107 106.892 176.696 109.752 174.199C87.5405 171.67 64.1913 163.095 64.1913 124.778C64.1913 113.86 68.0977 104.939 74.4947 97.9362C73.4564 95.4175 70.0335 85.2465 75.4635 71.4722C75.4635 71.4722 83.8609 68.7845 102.971 81.7226C110.948 79.5069 119.502 78.3958 128.001 78.3577C136.499 78.3958 145.061 79.5069 153.052 81.7226C172.139 68.7845 180.525 71.4722 180.525 71.4722C185.968 85.2465 182.544 95.4175 181.505 97.9362C187.917 104.939 191.797 113.86 191.797 124.778C191.797 163.187 168.403 171.644 146.135 174.119C149.722 177.223 152.918 183.308 152.918 192.638C152.918 206.018 152.802 216.787 152.802 220.081C152.802 222.742 154.602 225.86 159.671 224.878C199.383 211.64 228 174.169 228 130.001C228 74.7708 183.227 30 128.001 30ZM65.4536 172.453C65.2333 172.95 64.4517 173.099 63.7396 172.758C63.0143 172.432 62.6069 171.754 62.8421 171.256C63.0574 170.744 63.8406 170.602 64.5643 170.945C65.2913 171.271 65.7053 171.955 65.4536 172.453ZM70.3725 176.842C69.8956 177.285 68.9633 177.079 68.3307 176.38C67.6766 175.683 67.554 174.751 68.0376 174.302C68.5294 173.86 69.4336 174.067 70.0893 174.764C70.7434 175.47 70.8709 176.395 70.3725 176.842ZM73.7471 182.458C73.1344 182.884 72.1325 182.485 71.5132 181.595C70.9004 180.706 70.9004 179.64 71.5264 179.212C72.1474 178.785 73.1344 179.169 73.762 180.052C74.373 180.956 74.373 182.023 73.7471 182.458ZM79.4542 188.962C78.9061 189.566 77.7386 189.404 76.8841 188.579C76.0098 187.773 75.7663 186.629 76.3161 186.024C76.8709 185.418 78.045 185.589 78.9061 186.407C79.7738 187.211 80.0387 188.364 79.4542 188.962ZM86.8301 191.157C86.5883 191.941 85.4639 192.297 84.3312 191.964C83.2002 191.621 82.46 190.704 82.6885 189.912C82.9237 189.124 84.053 188.753 85.194 189.109C86.3234 189.45 87.0652 190.361 86.8301 191.157ZM95.2242 192.089C95.2523 192.913 94.2919 193.597 93.1029 193.612C91.9073 193.639 90.9402 192.971 90.9269 192.16C90.9269 191.327 91.8659 190.65 93.0615 190.63C94.2505 190.607 95.2242 191.269 95.2242 192.089ZM103.47 191.773C103.613 192.577 102.787 193.404 101.606 193.624C100.445 193.836 99.3702 193.339 99.2229 192.541C99.0788 191.716 99.92 190.89 101.079 190.676C102.262 190.471 103.32 190.955 103.47 191.773Z" fill="white"/>
</svg>

        </g>
        
  </svg>
  